<svg width="1440" height="652" viewBox="0 0 1440 652" fill="none" xmlns="http://www.w3.org/2000/svg">
<g clip-path="url(#clip0_251_5533)">
<path opacity="0.2" d="M1440 0H0V652H1440V0Z" fill="#DD6B20" fill-opacity="0.3"/>
<path fill-rule="evenodd" clip-rule="evenodd" d="M207.792 430.068C160.047 429.682 113.492 430.134 72.0818 453.933C12.9911 487.893 -57.3973 522.815 -70.1866 589.825C-84.144 662.954 -44.2976 736.96 7.95454 789.929C60.5172 843.213 134.117 884.534 207.792 871.616C275.713 859.706 303.743 783.18 348.071 730.292C385.926 685.127 445.425 648.769 443.974 589.825C442.536 531.4 389.688 488.827 341.324 456.114C302.26 429.69 254.932 430.45 207.792 430.068Z" fill="#DD6B20" fill-opacity="0.15"/>
<path fill-rule="evenodd" clip-rule="evenodd" d="M206.067 447.063C162.016 446.706 119.063 447.124 80.8569 469.1C26.338 500.46 -38.6045 532.707 -50.4043 594.586C-63.2817 662.115 -26.5183 730.454 21.6911 779.367C70.187 828.57 138.093 866.727 206.067 854.798C268.733 843.801 294.594 773.135 335.493 724.296C370.419 682.591 425.314 649.017 423.976 594.586C422.649 540.635 373.89 501.322 329.268 471.114C293.226 446.714 249.56 447.416 206.067 447.063Z" stroke="white"/>
<path fill-rule="evenodd" clip-rule="evenodd" d="M1561.01 482.905C1601.43 470.429 1640.61 457.565 1669.2 426.395C1710 381.916 1760.08 333.596 1752.94 273.664C1745.14 208.258 1691.68 156.539 1633.38 125.885C1574.73 95.0492 1501.52 79.9406 1442.78 110.588C1388.62 138.841 1385.44 210.884 1362.18 267.366C1342.31 315.599 1301.81 362.209 1318.81 411.523C1335.67 460.402 1391.69 482.13 1441.29 496.747C1481.35 508.553 1521.1 495.222 1561.01 482.905Z" fill="#DD6B20" fill-opacity="0.15"/>
<path fill-rule="evenodd" clip-rule="evenodd" d="M1556.45 461.228C1592.33 450.153 1627.12 438.733 1652.5 411.061C1688.72 371.575 1733.18 328.679 1726.84 275.474C1719.92 217.41 1672.46 171.497 1620.7 144.284C1568.63 116.909 1503.64 103.497 1451.49 130.704C1403.41 155.786 1400.59 219.742 1379.94 269.883C1362.3 312.702 1326.34 354.081 1341.44 397.859C1356.41 441.251 1406.14 460.54 1450.17 473.516C1485.73 483.997 1521.03 472.163 1556.45 461.228Z" stroke="white"/>
</g>
<defs>
<clipPath id="clip0_251_5533">
<rect width="1440" height="652" fill="white"/>
</clipPath>
</defs>
</svg>
