<svg width="48" height="47" viewBox="0 0 48 47" fill="none" xmlns="http://www.w3.org/2000/svg">
<path d="M24 -1.52588e-05C11.2338 -1.52588e-05 0.885254 10.521 0.885254 23.5C0.885254 36.479 11.2338 47 24 47C36.7663 47 47.1148 36.479 47.1148 23.5C47.1148 10.521 36.7663 -1.52588e-05 24 -1.52588e-05ZM22.9431 22.7637C22.6737 23.2204 22.1881 23.5 21.6643 23.5H21.6354C21.2402 23.5 20.8609 23.6601 20.5813 23.9444L20.0537 24.4807C19.7629 24.7764 19.7629 25.2568 20.0537 25.5524L20.5813 26.0888C20.8609 26.373 21.0184 26.7587 21.0184 27.1605V28.0484C21.0184 28.886 20.351 29.5645 19.5271 29.5645H18.9576C18.3928 29.5645 17.8765 29.2404 17.6239 28.7259L15.5156 24.44C15.2882 23.9776 14.6814 23.8771 14.3216 24.2429L12.5069 26.0869C12.2273 26.3712 11.848 26.5313 11.4528 26.5313H5.62098C5.46347 25.542 5.35908 24.5347 5.35908 23.5C5.35908 13.0501 13.7214 4.54837 24 4.54837C26.0048 4.54837 27.9332 4.88097 29.7442 5.4789L25.0691 9.12992C24.5928 9.45305 24.6375 10.1779 25.1492 10.4385L26.1586 10.9512C26.6638 11.208 26.9826 11.7329 26.9826 12.3072V19.7097C26.9826 20.1285 26.6489 20.4677 26.2369 20.4677H25.9517C25.6693 20.4677 25.4111 20.3057 25.2853 20.0489C25.1399 19.7533 24.7298 19.7371 24.562 20.0205L22.9431 22.7637ZM38.9128 33.2061C38.9128 33.6078 38.7552 33.9935 38.4756 34.2778L37.5837 35.1846C37.304 35.4689 36.9247 35.629 36.5295 35.629H35.1165C34.7213 35.629 34.342 35.4689 34.0624 35.1846L32.8498 33.9518C32.5451 33.6421 32.1668 33.4179 31.7516 33.301C31.3364 33.184 30.8985 33.1784 30.4805 33.2847L28.4981 33.7888C28.3797 33.8191 28.2585 33.8343 28.1364 33.8343H27.1727C26.7775 33.8343 26.3982 33.6742 26.1186 33.3899L25.0085 32.2613C24.8688 32.119 24.7903 31.9261 24.7904 31.725V30.7585C24.7904 30.4486 24.9759 30.17 25.2592 30.0544L28.9259 28.5629C29.1104 28.488 29.2856 28.3904 29.4469 28.2739L31.6568 26.6734C31.783 26.582 31.9342 26.533 32.0892 26.5332H33.2161C33.5171 26.5332 33.7893 26.717 33.9049 27.0003L34.4035 28.218C34.4318 28.287 34.4796 28.346 34.5408 28.3874C34.602 28.4289 34.6739 28.4511 34.7474 28.4511H35.1016C35.2675 28.4511 35.4139 28.3393 35.4595 28.1782L35.851 26.807C35.8976 26.645 36.043 26.5341 36.2089 26.5341H36.7737C36.9797 26.5341 37.1465 26.7038 37.1465 26.9132V28.1384C37.1465 28.3393 37.2248 28.5326 37.3646 28.6747L38.4747 29.8033C38.7543 30.0876 38.9118 30.4732 38.9118 30.875V33.2061H38.9128Z" fill="white"/>
</svg>
