<svg width="37" height="50" viewBox="0 0 37 50" fill="none" xmlns="http://www.w3.org/2000/svg">
<path d="M16.5987 48.9913C2.59867 28.4211 0 26.31 0 18.7501C0 8.39473 8.2827 0.000106812 18.5 0.000106812C28.7173 0.000106812 37 8.39473 37 18.7501C37 26.31 34.4013 28.4211 20.4013 48.9913C19.4825 50.3364 17.5174 50.3363 16.5987 48.9913ZM18.5 26.5626C22.7572 26.5626 26.2083 23.0648 26.2083 18.7501C26.2083 14.4354 22.7572 10.9376 18.5 10.9376C14.2428 10.9376 10.7917 14.4354 10.7917 18.7501C10.7917 23.0648 14.2428 26.5626 18.5 26.5626Z" fill="white"/>
</svg>
