<svg width="47" height="33" viewBox="0 0 47 33" fill="none" xmlns="http://www.w3.org/2000/svg">
<path d="M45.6157 1.65448C42.7671 0.456021 39.9163 6.11238e-05 37.067 6.11238e-05C28.0218 -0.000675483 18.9774 4.59207 9.93227 4.59207C7.66382 4.59207 5.39684 4.30332 3.12839 3.58145C2.87356 3.50042 2.61801 3.46211 2.36832 3.46211C1.10448 3.46211 0 4.44328 0 5.80526V29.1749C0 30.1052 0.530945 30.9869 1.38354 31.3449C4.23214 32.5441 7.08294 33.0001 9.93227 33.0001C18.9774 33.0001 28.0226 28.4073 37.0677 28.4073C39.3362 28.4073 41.6032 28.6961 43.8716 29.4179C44.1264 29.499 44.382 29.5373 44.6317 29.5373C45.8955 29.5373 47 28.5561 47 27.1941V3.82526C46.9993 2.89419 46.4683 2.01321 45.6157 1.65448ZM3.52494 7.38234C5.00248 7.75359 6.54465 7.93995 8.13087 8.04013C7.69907 10.205 5.80147 11.8366 3.52494 11.8366V7.38234ZM3.52494 28.3756V24.8561C6.04895 24.8561 8.09122 26.8649 8.20357 29.3789C6.54905 29.2456 5.00248 28.9141 3.52494 28.3756ZM23.4996 23.5715C20.2545 23.5715 17.6247 20.4048 17.6247 16.5001C17.6247 12.5946 20.2552 9.42863 23.4996 9.42863C26.744 9.42863 29.3745 12.5946 29.3745 16.5001C29.3745 20.4063 26.7433 23.5715 23.4996 23.5715ZM43.4743 25.6178C42.1877 25.2944 40.8519 25.1132 39.4853 24.9961C39.9163 23.075 41.5048 21.6165 43.4743 21.3661V25.6178ZM43.4743 8.22575C41.2059 7.93774 39.4456 6.03803 39.3758 3.69194C40.8108 3.85178 42.173 4.15084 43.4743 4.62448V8.22575Z" fill="white"/>
</svg>
